<svg width="45" height="32" viewBox="0 0 45 32" fill="none" xmlns="http://www.w3.org/2000/svg">
<path fill-rule="evenodd" clip-rule="evenodd" d="M40 3.67798H5C3.89543 3.67798 3 4.57341 3 5.67797V5.69077L22.9402 18.5959L41.8882 5.45685C41.9186 5.4358 41.9494 5.41608 41.9805 5.39767C41.8442 4.42581 41.0094 3.67798 40 3.67798ZM42 9.02138L24.0449 21.4719C23.7759 21.7768 23.4002 21.941 23.0127 21.9409C22.6114 21.9656 22.2138 21.8127 21.9261 21.5051L3 9.25628V26.5207C3 27.6252 3.89543 28.5207 5 28.5207H40C41.1046 28.5207 42 27.6252 42 26.5207V9.02138ZM5 0.677979C2.23858 0.677979 0 2.91655 0 5.67797V26.5207C0 29.2821 2.23858 31.5207 5 31.5207H40C42.7614 31.5207 45 29.2821 45 26.5207V5.67798C45 2.91655 42.7614 0.677979 40 0.677979H5Z" fill="#DE93C0"/>
</svg>
