<svg width="456" height="76" viewBox="0 0 456 76" fill="none" xmlns="http://www.w3.org/2000/svg">
<path d="M70.5895 22.0868C70.5336 21.4939 70.3187 18.5608 70.3187 18.5608C70.3187 18.5608 68.0707 17.7895 67.3127 17.6566C65.5276 17.34 63.6901 17.1668 61.8788 17.0234C60.1688 16.8852 58.485 16.901 56.7767 16.901C51.7376 17.0934 46.7351 18.1725 42.0819 20.1279C41.9929 20.1664 41.8933 20.1244 41.8619 20.0317C41.4182 18.706 40.6077 15.6697 40.3073 14.7374C40.2724 14.6307 40.1484 14.5905 40.0558 14.6482C33.7922 18.5765 23.3523 21.1948 15.9918 18.2705C15.6827 18.148 15.3141 18.0256 14.9857 17.8524C14.8355 17.7737 14.6766 17.9294 14.7569 18.0798C15.7281 19.8778 16.6625 21.6986 17.5551 23.5385C18.4162 25.3121 19.2791 27.1083 19.8747 28.9885C20.0092 29.4118 19.8397 29.8718 19.4799 30.1306C11.8347 35.6173 5.64451 43.2868 1.90138 51.9917C1.26384 53.4837 0.645516 54.9651 0.324127 56.5689C-0.320397 59.7942 0.00099206 63.2695 1.24637 66.3145C2.18085 68.6093 3.66028 70.6731 5.58861 72.2315C5.7266 72.3434 5.86983 72.4519 6.01655 72.5586C6.26108 72.7475 6.5161 72.9311 6.77111 73.1008C7.89947 73.8476 9.13437 74.4388 10.4496 74.8585C11.0767 75.0579 11.7247 75.2206 12.3884 75.3395C12.5212 75.3605 12.6539 75.385 12.7867 75.406C13.5063 75.5074 14.2364 75.5651 14.9805 75.5651C15.1132 75.5651 15.2407 75.5652 15.3683 75.5547C16.9752 75.5144 18.5158 75.2223 19.9603 74.7116C20.0319 74.6854 20.0983 74.6609 20.1542 74.6242C20.1332 74.6347 20.114 74.6504 20.0878 74.6644C20.8074 74.3076 21.5777 74.0662 22.2921 73.6989C23.0117 73.3264 23.6999 72.9066 24.3636 72.4414C25.7575 71.4654 27.0116 70.3006 28.2168 69.1042C30.732 66.6014 32.8141 63.7907 34.6149 60.7404C34.6201 60.7299 34.6306 60.7141 34.6359 60.7054C36.545 57.4767 38.0855 54.0381 39.2331 50.4666C40.4226 46.7779 41.2889 42.9807 41.8199 39.1381C41.9579 38.0957 42.0854 37.048 42.1763 35.9951C42.2688 34.9877 42.2426 33.9505 42.4051 32.9553C42.5378 32.128 42.9815 31.6313 43.8339 31.5911C43.8653 31.5858 43.9002 31.5858 43.9317 31.5858C48.728 31.341 53.5646 32.128 58.0553 33.8246C60.3871 34.7078 62.6264 35.8377 64.7189 37.1967C65.5241 37.7197 67.2551 39 67.2551 39C67.2551 39 67.8507 38.1587 68.1476 37.4818C70.2541 32.6737 71.0925 27.3147 70.586 22.0868H70.5895ZM21.7995 45.6882C21.6109 48.1456 21.2179 50.603 20.6048 52.9939C20.1507 54.7727 19.5743 56.5147 18.8756 58.206C18.259 59.698 17.5691 61.2161 16.804 62.6468C16.57 63.0858 16.3097 63.5108 16.0023 63.9044C15.2879 64.8244 13.7631 65.6307 12.6033 65.6009C11.1588 65.5607 9.7195 64.8541 8.87411 63.67C6.16502 59.8938 9.07323 55.1068 11.0435 51.7241C13.3963 47.6821 16.5088 43.3393 20.3201 40.5548C20.8301 40.1823 21.4781 39.6191 21.6773 40.5706C21.7279 40.791 21.7646 41.0148 21.7995 41.2457C22.0039 42.7026 21.9165 44.2453 21.7995 45.6917V45.6882Z" fill="#DE93C0"/>
<path d="M27.4178 15.0119C35.2384 13.6832 41.0405 9.43218 40.3771 5.51706C39.7137 1.60195 32.836 -0.494697 25.0153 0.834065C17.1947 2.16283 11.3926 6.41383 12.056 10.3289C12.7194 14.244 19.5971 16.3407 27.4178 15.0119Z" fill="#DE93C0"/>
<path fill-rule="evenodd" clip-rule="evenodd" d="M368.2 52.7381C365.96 52.7381 363.893 52.3781 362 51.6581C360.106 50.9381 358.453 49.9248 357.04 48.6181C355.653 47.2848 354.573 45.7381 353.8 43.9781C353.026 42.2181 352.64 40.2848 352.64 38.1781C352.64 36.0715 353.026 34.1381 353.8 32.3781C354.573 30.6181 355.653 29.0848 357.04 27.7781C358.453 26.4448 360.106 25.4181 362 24.6981C363.893 23.9781 365.96 23.6181 368.2 23.6181C370.466 23.6181 372.533 23.9781 374.4 24.6981C376.293 25.4181 377.933 26.4448 379.32 27.7781C380.706 29.0848 381.786 30.6181 382.56 32.3781C383.36 34.1381 383.76 36.0715 383.76 38.1781C383.76 40.2848 383.36 42.2315 382.56 44.0181C381.786 45.7781 380.706 47.3115 379.32 48.6181C377.933 49.9248 376.293 50.9381 374.4 51.6581C372.533 52.3781 370.466 52.7381 368.2 52.7381ZM109.653 52.7381C107.599 52.7381 105.733 52.3915 104.053 51.6981C102.399 50.9781 101.026 49.9515 99.9327 48.6181L104.253 43.4981C104.999 44.4581 105.773 45.1915 106.573 45.6981C107.373 46.1781 108.213 46.4181 109.093 46.4181C111.439 46.4181 112.613 45.0581 112.613 42.3381V30.2981H102.933V24.1781H120.453V41.8581C120.453 45.5115 119.533 48.2448 117.693 50.0581C115.853 51.8448 113.173 52.7381 109.653 52.7381ZM148.278 46.0581H133.638V40.9381H146.078V35.0181H133.638V30.2981H147.758V24.1781H125.798V52.1781H148.278V46.0581ZM152.673 24.1781V52.1781H160.433V37.2565L172.793 52.1781H179.313V24.1781H171.553V39.0998L159.193 24.1781H152.673ZM184.9 52.1781V24.1781H191.42L203.78 39.0998V24.1781H211.54V52.1781H205.02L192.66 37.2565V52.1781H184.9ZM217.126 24.1781V52.1781H225.046V24.1781H217.126ZM238.601 52.1781V42.5781H250.961V36.4581H238.601V30.2981H252.641V24.1781H230.681V52.1781H238.601ZM264.185 46.0581H278.825V52.1781H256.345V24.1781H278.305V30.2981H264.185V35.0181H276.625V40.9381H264.185V46.0581ZM283.22 52.1781V24.1781H296.02C298.58 24.1781 300.78 24.5915 302.62 25.4181C304.487 26.2448 305.927 27.4448 306.94 29.0181C307.954 30.5648 308.46 32.4048 308.46 34.5381C308.46 36.6448 307.954 38.4715 306.94 40.0181C305.993 41.4397 304.672 42.558 302.978 43.3731L309.02 52.1781H300.54L295.464 44.7381H291.14V52.1781H283.22ZM295.54 38.6181H291.14V30.4181H295.54C297.194 30.4181 298.42 30.7781 299.22 31.4981C300.047 32.2181 300.46 33.2315 300.46 34.5381C300.46 35.8181 300.047 36.8181 299.22 37.5381C298.42 38.2581 297.194 38.6181 295.54 38.6181ZM324.47 24.1781V52.1781H332.39V44.7381H336.714L341.79 52.1781H350.27L344.228 43.3731C345.922 42.558 347.243 41.4397 348.19 40.0181C349.204 38.4715 349.71 36.6448 349.71 34.5381C349.71 32.4048 349.204 30.5648 348.19 29.0181C347.177 27.4448 345.737 26.2448 343.87 25.4181C342.03 24.5915 339.83 24.1781 337.27 24.1781H324.47ZM332.39 38.6181H336.79C338.444 38.6181 339.67 38.2581 340.47 37.5381C341.297 36.8181 341.71 35.8181 341.71 34.5381C341.71 33.2315 341.297 32.2181 340.47 31.4981C339.67 30.7781 338.444 30.4181 336.79 30.4181H332.39V38.6181ZM387.908 24.1781V52.1781H395.228V37.7377L402.388 49.4181H405.908L413.117 37.3221L413.188 52.1781H420.468L420.388 24.1781H413.868L404.284 40.3555L394.428 24.1781H387.908ZM440.192 52.7381C437.952 52.7381 435.885 52.3781 433.992 51.6581C432.098 50.9381 430.445 49.9248 429.032 48.6181C427.645 47.2848 426.565 45.7381 425.792 43.9781C425.018 42.2181 424.632 40.2848 424.632 38.1781C424.632 36.0715 425.018 34.1381 425.792 32.3781C426.565 30.6181 427.645 29.0848 429.032 27.7781C430.445 26.4448 432.098 25.4181 433.992 24.6981C435.885 23.9781 437.952 23.6181 440.192 23.6181C442.458 23.6181 444.525 23.9781 446.392 24.6981C448.285 25.4181 449.925 26.4448 451.312 27.7781C452.698 29.0848 453.778 30.6181 454.552 32.3781C455.352 34.1381 455.752 36.0715 455.752 38.1781C455.752 40.2848 455.352 42.2315 454.552 44.0181C453.778 45.7781 452.698 47.3115 451.312 48.6181C449.925 49.9248 448.285 50.9381 446.392 51.6581C444.525 52.3781 442.458 52.7381 440.192 52.7381ZM435.204 38.1781C435.114 38.1008 435.026 38.0193 434.94 37.9336C433.3 36.2935 433.19 33.744 434.695 32.239C436.2 30.734 438.75 30.8435 440.39 32.4836C440.476 32.5693 440.557 32.6574 440.635 32.7478C440.712 32.6574 440.793 32.5692 440.879 32.4835C442.519 30.8435 445.069 30.734 446.574 32.239C448.079 33.744 447.969 36.2935 446.329 37.9336C446.243 38.0193 446.155 38.1008 446.065 38.1781C446.155 38.2555 446.243 38.337 446.329 38.4227C447.969 40.0627 448.079 42.6123 446.574 44.1173C445.069 45.6223 442.519 45.5128 440.879 43.8727C440.793 43.787 440.712 43.6988 440.634 43.6084C440.557 43.6988 440.476 43.787 440.39 43.8727C438.75 45.5128 436.2 45.6222 434.695 44.1173C433.19 42.6123 433.3 40.0627 434.94 38.4227C435.026 38.337 435.114 38.2555 435.204 38.1781ZM362.94 37.9336C363.026 38.0193 363.114 38.1008 363.204 38.1781C363.114 38.2555 363.026 38.337 362.94 38.4227C361.3 40.0627 361.19 42.6123 362.695 44.1173C364.2 45.6222 366.75 45.5128 368.39 43.8727C368.476 43.787 368.557 43.6988 368.634 43.6084C368.712 43.6988 368.793 43.787 368.879 43.8727C370.519 45.5128 373.069 45.6223 374.574 44.1173C376.079 42.6123 375.969 40.0627 374.329 38.4227C374.243 38.337 374.155 38.2555 374.065 38.1781C374.155 38.1008 374.243 38.0193 374.329 37.9336C375.969 36.2935 376.079 33.744 374.574 32.239C373.069 30.734 370.519 30.8435 368.879 32.4835C368.793 32.5692 368.712 32.6574 368.635 32.7478C368.557 32.6574 368.476 32.5693 368.39 32.4836C366.75 30.8435 364.2 30.734 362.695 32.239C361.19 33.744 361.3 36.2935 362.94 37.9336Z" fill="#362F2E"/>
</svg>
