<svg width="45" height="46" viewBox="0 0 45 46" fill="none" xmlns="http://www.w3.org/2000/svg">
<path fill-rule="evenodd" clip-rule="evenodd" d="M35 3.67798H10C6.13401 3.67798 3 6.81199 3 10.678V35.678C3 39.544 6.13401 42.678 10 42.678H35C38.866 42.678 42 39.544 42 35.678V10.678C42 6.81199 38.866 3.67798 35 3.67798ZM10 0.677979C4.47715 0.677979 0 5.15513 0 10.678V35.678C0 41.2008 4.47715 45.678 10 45.678H35C40.5228 45.678 45 41.2008 45 35.678V10.678C45 5.15513 40.5228 0.677979 35 0.677979H10ZM36.4459 23.482C36.4459 31.0953 30.1219 37.1239 22.5 37.1239C14.8781 37.1239 8.55406 31.0953 8.55406 23.482C8.55406 15.8687 14.8781 9.84009 22.5 9.84009C30.1219 9.84009 36.4459 15.8687 36.4459 23.482ZM22.5 34.1239C28.5453 34.1239 33.4459 29.3593 33.4459 23.482C33.4459 17.6046 28.5453 12.8401 22.5 12.8401C16.4547 12.8401 11.5541 17.6046 11.5541 23.482C11.5541 29.3593 16.4547 34.1239 22.5 34.1239ZM34.9662 12.2322C36.1417 12.2322 37.0946 11.2792 37.0946 10.1038C37.0946 8.9283 36.1417 7.97539 34.9662 7.97539C33.7907 7.97539 32.8378 8.9283 32.8378 10.1038C32.8378 11.2792 33.7907 12.2322 34.9662 12.2322Z" fill="#DE93C0"/>
</svg>
