<svg width="161" height="160" viewBox="0 0 161 160" fill="none" xmlns="http://www.w3.org/2000/svg">
<path d="M18.2434 80C17.2115 79.1163 16.2046 78.1847 15.2262 77.2053C-3.50015 58.4619 -4.75032 29.3241 12.4338 12.1242C29.618 -5.07564 58.7292 -3.82432 77.4555 14.9191C78.4341 15.8986 79.3649 16.9064 80.2479 17.9394C81.1309 16.9063 82.0618 15.8984 83.0405 14.9189C101.767 -3.82457 130.878 -5.07589 148.062 12.124C165.246 29.3238 163.996 58.4616 145.27 77.2051C144.291 78.1846 143.284 79.1163 142.252 80.0001C143.284 80.8838 144.291 81.8155 145.27 82.7949C163.996 101.538 165.246 130.676 148.062 147.876C130.878 165.076 101.767 163.825 83.0402 145.081C82.0617 144.102 81.1308 143.094 80.2478 142.061C79.3648 143.094 78.434 144.101 77.4555 145.081C58.7292 163.824 29.618 165.076 12.4338 147.876C-4.75033 130.676 -3.50016 101.538 15.2262 82.7947C16.2046 81.8153 17.2114 80.8837 18.2434 80Z" fill="#5053A4"/>
<path d="M41.3134 56.6216C40.6114 56.2162 39.9831 55.7365 39.4285 55.1823C38.8779 54.6427 38.4842 54.0767 38.2473 53.4842L40.0024 52.4283C40.1672 52.8683 40.4471 53.3008 40.8421 53.726C41.241 54.1657 41.676 54.5215 42.1472 54.7935C42.9139 55.2362 43.5668 55.3853 44.1059 55.2408C44.6543 55.1017 45.1231 54.695 45.5125 54.0206L46.1605 52.8983L47.379 51.1076L48.4393 49.2072L49.3673 47.5998L51.4181 48.7838L47.8341 54.9915C47.0341 56.3771 46.0845 57.1899 44.9853 57.4298C43.8861 57.6696 42.6621 57.4002 41.3134 56.6216ZM42.8049 53.2703C42.1121 52.8703 41.5692 52.3598 41.1764 51.7389C40.7981 51.1141 40.5928 50.4351 40.5603 49.702C40.5424 48.965 40.7415 48.2362 41.1575 47.5156C41.5788 46.7859 42.1104 46.2491 42.7523 45.9053C43.4088 45.5576 44.0995 45.396 44.8244 45.4204C45.5586 45.4501 46.2721 45.665 46.9649 46.065C47.593 46.4276 48.0726 46.877 48.4036 47.413C48.74 47.9397 48.8875 48.5483 48.846 49.2388C48.8099 49.92 48.5518 50.6763 48.0718 51.5076C47.5972 52.3298 47.0712 52.9314 46.494 53.3125C45.9221 53.6844 45.3213 53.861 44.6916 53.8423C44.062 53.8237 43.433 53.633 42.8049 53.2703ZM44.2584 51.7447C44.6372 51.9634 45.017 52.0841 45.3979 52.107C45.7842 52.1206 46.1405 52.0369 46.4668 51.8557C46.793 51.6746 47.0602 51.4039 47.2682 51.0436C47.4815 50.6741 47.5824 50.3074 47.5708 49.9436C47.5645 49.5704 47.4562 49.2246 47.2459 48.9062C47.041 48.5785 46.7492 48.3053 46.3704 48.0866C45.9917 47.8679 45.6092 47.7518 45.2229 47.7382C44.842 47.7153 44.4837 47.7918 44.1482 47.9676C43.8273 48.1394 43.5601 48.4101 43.3468 48.7796C43.1388 49.1399 43.038 49.5066 43.0442 49.8797C43.0597 50.2582 43.17 50.6113 43.3749 50.939C43.5852 51.2575 43.8797 51.526 44.2584 51.7447Z" fill="#F5EEE6"/>
<path d="M52.7616 59.647C51.9117 59.1563 51.2595 58.558 50.8049 57.8522C50.3595 57.1516 50.1266 56.4136 50.1062 55.6382C50.0912 54.8536 50.297 54.0918 50.7237 53.3528C51.1557 52.6045 51.7079 52.0427 52.3804 51.6673C53.0674 51.288 53.8045 51.11 54.5916 51.1334C55.384 51.1475 56.159 51.3732 56.9165 51.8105C57.6463 52.2319 58.2115 52.7676 58.6121 53.4177C59.0273 54.0638 59.2378 54.7766 59.2436 55.5559C59.2547 56.3259 59.0283 57.1128 58.5643 57.9165C58.5163 57.9996 58.4557 58.0939 58.3824 58.1995C58.3145 58.2957 58.2493 58.3874 58.1867 58.4744L52.1315 54.9785L52.8595 53.7175L57.7785 56.5575L56.7311 56.4516C56.9551 56.0637 57.0712 55.6812 57.0795 55.3041C57.0878 54.9271 56.9987 54.5801 56.8123 54.263C56.6312 53.9367 56.3558 53.6669 55.9863 53.4536C55.6168 53.2403 55.2409 53.1341 54.8585 53.135C54.4907 53.1321 54.143 53.233 53.8153 53.438C53.4929 53.6337 53.2171 53.9301 52.9877 54.3274L52.7957 54.6599C52.5611 55.0664 52.4408 55.4773 52.435 55.8927C52.4437 56.3042 52.5618 56.6864 52.7891 57.0394C53.031 57.3884 53.3736 57.6909 53.817 57.9469C54.2143 58.1763 54.5953 58.3162 54.9603 58.3668C55.3344 58.4227 55.7156 58.4026 56.1036 58.3064L56.5337 60.2175C55.9679 60.4081 55.3651 60.4604 54.7251 60.3742C54.0904 60.2787 53.436 60.0363 52.7616 59.647Z" fill="#F5EEE6"/>
<path d="M60.8518 64.3179C59.9742 63.8112 59.4186 63.1948 59.1851 62.4688C58.9568 61.7335 59.0987 60.9224 59.6107 60.0356L63.3867 53.4954L65.5483 54.7434L61.7883 61.2559C61.6069 61.5699 61.5487 61.8627 61.6137 62.1343C61.684 62.3965 61.8623 62.6103 62.1486 62.7757C62.4904 62.973 62.8348 63.0486 63.1816 63.0025L62.8836 64.8627C62.5712 64.8918 62.234 64.8572 61.8719 64.759C61.5244 64.6569 61.1844 64.5099 60.8518 64.3179ZM60.2286 56.3093L61.1886 54.6465L66.357 57.6305L65.397 59.2933L60.2286 56.3093Z" fill="#F5EEE6"/>
<path d="M70.7976 70.0601C69.92 69.5534 69.3644 68.937 69.1308 68.2109C68.9026 67.4756 69.0444 66.6646 69.5564 65.7778L73.3324 59.2375L75.494 60.4855L71.734 66.9981C71.5527 67.3121 71.4945 67.6049 71.5594 67.8764C71.6297 68.1387 71.808 68.3525 72.0944 68.5179C72.4362 68.7152 72.7805 68.7908 73.1274 68.7447L72.8293 70.6049C72.517 70.634 72.1797 70.5994 71.8177 70.5012C71.4701 70.3991 71.1301 70.2521 70.7976 70.0601ZM70.1743 62.0515L71.1343 60.3887L76.3028 63.3727L75.3428 65.0355L70.1743 62.0515Z" fill="#F5EEE6"/>
<path d="M77.0879 73.6918C76.2935 73.2331 75.6828 72.6589 75.2559 71.969C74.8382 71.2844 74.6146 70.5518 74.585 69.771C74.57 68.9864 74.7758 68.2246 75.2024 67.4856C75.6344 66.7373 76.1913 66.1782 76.873 65.8081C77.5693 65.4341 78.3156 65.2615 79.1119 65.2902C79.9228 65.315 80.7255 65.5567 81.5199 66.0154C82.3051 66.4687 82.9112 67.0403 83.3381 67.7302C83.7704 68.4108 83.9967 69.1389 84.017 69.9143C84.0374 70.6897 83.8289 71.4561 83.3916 72.2136C82.9649 72.9526 82.4081 73.5117 81.721 73.891C81.0393 74.2611 80.293 74.4338 79.4821 74.409C78.6712 74.3842 77.8731 74.1451 77.0879 73.6918ZM78.1119 71.9182C78.4722 72.1262 78.8435 72.2297 79.2259 72.2288C79.6082 72.2278 79.9706 72.1229 80.3129 71.9141C80.6605 71.696 80.9569 71.3745 81.2023 70.9496C81.4529 70.5154 81.5831 70.0979 81.5928 69.6971C81.6026 69.2962 81.5122 68.93 81.3219 68.5984C81.1315 68.2668 80.8562 67.997 80.4959 67.789C80.1357 67.581 79.7644 67.4774 79.382 67.4784C78.9996 67.4793 78.6327 67.5816 78.2812 67.7851C77.9389 67.9939 77.6424 68.3154 77.3918 68.7496C77.1464 69.1745 77.0162 69.592 77.0012 70.0021C77.0007 70.4083 77.0956 70.7772 77.286 71.1088C77.4764 71.4404 77.7517 71.7102 78.1119 71.9182Z" fill="#F5EEE6"/>
<path d="M89.2761 78.5486L90.8515 75.9478L96.2335 74.658L98.8108 76.146L93.5114 77.6128L91.861 77.8794L89.2761 78.5486ZM86.6086 79.0408L92.5446 68.7593L94.7062 70.0073L88.7702 80.2888L86.6086 79.0408ZM92.165 82.2488L91.4512 77.6612L93.7771 76.7686L94.7839 83.7608L92.165 82.2488Z" fill="#F5EEE6"/>
<path d="M104.614 79.349C105.206 79.6903 105.663 80.1144 105.986 80.6212C106.324 81.1242 106.485 81.6978 106.471 82.342C106.461 82.9771 106.238 83.6733 105.8 84.4308L103.336 88.6986L101.175 87.4506L103.447 83.5154C103.793 82.9149 103.916 82.3942 103.813 81.9531C103.72 81.5174 103.433 81.1609 102.952 80.8836C102.611 80.6863 102.259 80.5815 101.896 80.5693C101.548 80.5532 101.21 80.6476 100.883 80.8525C100.564 81.0628 100.272 81.3989 100.005 81.8608L97.877 85.5466L95.7154 84.2986L100.019 76.8438L102.084 78.0358L100.892 80.1004L100.864 79.2529C101.42 78.9087 102.025 78.7467 102.678 78.7668C103.332 78.7869 103.977 78.981 104.614 79.349Z" fill="#F5EEE6"/>
<path d="M108.833 92.0199C108.039 91.5613 107.428 90.987 107.001 90.2971C106.583 89.6126 106.36 88.8799 106.33 88.0992C106.315 87.3145 106.521 86.5527 106.948 85.8137C107.38 85.0655 107.937 84.5063 108.618 84.1362C109.314 83.7623 110.061 83.5896 110.857 83.6183C111.668 83.6431 112.471 83.8848 113.265 84.3435C114.05 84.7968 114.656 85.3684 115.083 86.0583C115.516 86.739 115.742 87.467 115.762 88.2424C115.783 89.0178 115.574 89.7842 115.137 90.5417C114.71 91.2807 114.153 91.8399 113.466 92.2192C112.785 92.5892 112.038 92.7619 111.227 92.7371C110.416 92.7123 109.618 92.4733 108.833 92.0199ZM109.857 90.2463C110.217 90.4543 110.589 90.5578 110.971 90.5569C111.353 90.5559 111.716 90.4511 112.058 90.2422C112.406 90.0241 112.702 89.7026 112.948 89.2777C113.198 88.8435 113.328 88.426 113.338 88.0252C113.348 87.6244 113.257 87.2581 113.067 86.9265C112.877 86.5949 112.601 86.3251 112.241 86.1171C111.881 85.9091 111.51 85.8056 111.127 85.8065C110.745 85.8075 110.378 85.9097 110.026 86.1132C109.684 86.322 109.388 86.6435 109.137 87.0777C108.892 87.5026 108.761 87.9201 108.746 88.3302C108.746 88.7364 108.841 89.1053 109.031 89.4369C109.222 89.7685 109.497 90.0383 109.857 90.2463Z" fill="#F5EEE6"/>
<path d="M115.931 95.9701L117.547 86.9633L119.584 88.1393L118.111 95.8428L117.141 95.2829L123.173 90.2113L125.002 91.2673L123.556 98.9868L122.586 98.4268L128.59 93.3393L130.503 94.4433L123.497 100.338L121.404 99.1301L122.599 92.4851L123.236 92.8531L118.009 97.1701L115.931 95.9701Z" fill="#F5EEE6"/>
<path d="M49.2657 70.4874C49.8569 70.8287 50.3095 71.2501 50.6235 71.7516C50.952 72.2492 51.1043 72.8175 51.0803 73.4564C51.0708 74.0915 50.8474 74.7877 50.4101 75.5452L47.9461 79.813L45.7845 78.565L48.0565 74.6297C48.4032 74.0293 48.5345 73.5139 48.4504 73.0835C48.3663 72.6532 48.0979 72.3073 47.6453 72.046C47.3312 71.8646 47.0068 71.7759 46.672 71.7797C46.3426 71.7742 46.026 71.8747 45.7221 72.0811C45.4182 72.2874 45.1382 72.6123 44.8822 73.0557L42.7222 76.797L40.5606 75.549L42.8326 71.6137C43.1793 71.0133 43.3106 70.4979 43.2265 70.0675C43.1517 69.6425 42.8879 69.2993 42.4353 69.038C42.1212 68.8566 41.7968 68.7679 41.462 68.7717C41.1326 68.7662 40.816 68.8667 40.5121 69.0731C40.2082 69.2794 39.9282 69.6043 39.6722 70.0477L37.5122 73.789L35.3506 72.541L39.6546 65.0862L41.7192 66.2782L40.5432 68.3151L40.4992 67.4953C41.0512 67.1366 41.6374 66.9639 42.2579 66.9772C42.8929 66.9866 43.5153 67.1674 44.125 67.5194C44.8085 67.914 45.303 68.4335 45.6084 69.0779C45.9284 69.7184 45.9662 70.4422 45.7218 71.2495L45.0797 70.6017C45.6651 70.1637 46.329 69.9312 47.0714 69.9041C47.8229 69.8823 48.5544 70.0767 49.2657 70.4874Z" fill="#F5EEE6"/>
<path d="M53.5734 83.2097C52.7235 82.719 52.0713 82.1207 51.6167 81.4149C51.1713 80.7143 50.9384 79.9763 50.918 79.2009C50.903 78.4163 51.1088 77.6545 51.5355 76.9155C51.9675 76.1672 52.5197 75.6054 53.1922 75.23C53.8792 74.8507 54.6163 74.6727 55.4034 74.6961C56.1958 74.7102 56.9708 74.9359 57.7283 75.3732C58.458 75.7946 59.0232 76.3303 59.4239 76.9804C59.8391 77.6265 60.0496 78.3393 60.0554 79.1186C60.0665 79.8886 59.8401 80.6755 59.3761 81.4792C59.3281 81.5623 59.2674 81.6566 59.1942 81.7622C59.1263 81.8584 59.0611 81.9501 58.9985 82.0371L52.9432 78.5411L53.6712 77.2802L58.5903 80.1202L57.5429 80.0143C57.7669 79.6264 57.883 79.2439 57.8913 78.8668C57.8996 78.4898 57.8105 78.1428 57.6241 77.8257C57.4429 77.4994 57.1676 77.2296 56.7981 77.0163C56.4286 76.803 56.0527 76.6968 55.6703 76.6977C55.3025 76.6947 54.9548 76.7957 54.6271 77.0007C54.3047 77.1964 54.0288 77.4928 53.7995 77.89L53.6075 78.2226C53.3728 78.6291 53.2526 79.04 53.2468 79.4554C53.2555 79.8669 53.3736 80.2491 53.6009 80.6021C53.8428 80.9511 54.1854 81.2536 54.6288 81.5096C55.026 81.739 55.4071 81.8789 55.7721 81.9295C56.1462 81.9854 56.5274 81.9653 56.9154 81.8691L57.3455 83.7802C56.7797 83.9708 56.1768 84.0231 55.5369 83.9369C54.9022 83.8414 54.2477 83.599 53.5734 83.2097Z" fill="#F5EEE6"/>
<path d="M66.9457 90.9302C66.2898 90.5515 65.8063 90.0876 65.4952 89.5385C65.1841 88.9894 65.0665 88.3611 65.1424 87.6536C65.2237 86.9368 65.515 86.1443 66.0163 85.276C66.523 84.3984 67.0683 83.7525 67.6523 83.3384C68.2455 82.9295 68.8577 82.7226 69.4888 82.7174C70.1199 82.7123 70.7495 82.8911 71.3777 83.2537C72.0798 83.6591 72.6172 84.1788 72.9902 84.8129C73.3723 85.4523 73.5597 86.1517 73.5524 86.9111C73.5543 87.6758 73.3285 88.4508 72.8752 89.236C72.4272 90.0119 71.8716 90.5903 71.2084 90.971C70.5544 91.3571 69.8523 91.5491 69.1022 91.5471C68.3666 91.5412 67.6478 91.3355 66.9457 90.9302ZM62.6034 88.2753L68.5394 77.9939L70.701 79.2419L68.197 83.5789L66.7864 85.7021L65.548 87.9431L64.668 89.4673L62.6034 88.2753ZM67.5956 88.9406C67.9558 89.1486 68.3225 89.2494 68.6957 89.2432C69.078 89.2422 69.4403 89.1373 69.7826 88.9285C70.1395 88.7157 70.4406 88.3969 70.6859 87.972C70.9366 87.5378 71.0621 87.1176 71.0626 86.7114C71.0724 86.3106 70.982 85.9444 70.7917 85.6128C70.6105 85.2865 70.3398 85.0194 69.9796 84.8114C69.6193 84.6034 69.248 84.4998 68.8656 84.5008C68.4833 84.5017 68.1209 84.6066 67.7787 84.8155C67.4364 85.0243 67.1399 85.3458 66.8892 85.78C66.6439 86.2049 66.5137 86.6224 66.4987 87.0325C66.4889 87.4333 66.5793 87.7995 66.7696 88.1311C66.96 88.4628 67.2353 88.7326 67.5956 88.9406Z" fill="#F5EEE6"/>
<path d="M75.8059 96.0456C74.956 95.555 74.3038 94.9567 73.8492 94.2508C73.4038 93.5502 73.1709 92.8123 73.1505 92.0369C73.1355 91.2522 73.3413 90.4904 73.768 89.7514C74.2 89.0032 74.7522 88.4413 75.4247 88.0659C76.1117 87.6866 76.8488 87.5087 77.6359 87.532C78.4283 87.5461 79.2033 87.7718 79.9608 88.2092C80.6905 88.6305 81.2557 89.1662 81.6564 89.8163C82.0716 90.4625 82.2821 91.1752 82.2879 91.9545C82.299 92.7246 82.0726 93.5114 81.6086 94.3151C81.5606 94.3983 81.4999 94.4926 81.4267 94.5981C81.3588 94.6944 81.2936 94.786 81.231 94.8731L75.1757 91.3771L75.9037 90.1161L80.8228 92.9562L79.7754 92.8503C79.9994 92.4623 80.1155 92.0798 80.1238 91.7028C80.1321 91.3257 80.043 90.9787 79.8566 90.6617C79.6754 90.3354 79.4001 90.0656 79.0306 89.8522C78.6611 89.6389 78.2852 89.5327 77.9028 89.5336C77.535 89.5307 77.1873 89.6317 76.8596 89.8366C76.5372 90.0323 76.2613 90.3288 76.032 90.726L75.84 91.0585C75.6053 91.465 75.4851 91.8759 75.4793 92.2913C75.488 92.7028 75.6061 93.0851 75.8334 93.438C76.0753 93.7871 76.4179 94.0896 76.8613 94.3456C77.2585 94.5749 77.6396 94.7149 78.0045 94.7654C78.3787 94.8214 78.7599 94.8012 79.1479 94.705L79.578 96.6161C79.0122 96.8068 78.4093 96.859 77.7694 96.7728C77.1347 96.6773 76.4802 96.435 75.8059 96.0456Z" fill="#F5EEE6"/>
<path d="M83.8961 100.716C83.0185 100.21 82.4629 99.5935 82.2293 98.8674C82.0011 98.1321 82.1429 97.321 82.6549 96.4342L86.4309 89.894L88.5925 91.142L84.8325 97.6545C84.6512 97.9686 84.593 98.2614 84.658 98.5329C84.7282 98.7952 84.9066 99.009 85.1929 99.1743C85.5347 99.3716 85.879 99.4473 86.2259 99.4012L85.9278 101.261C85.6155 101.29 85.2783 101.256 84.9162 101.158C84.5687 101.056 84.2286 100.908 83.8961 100.716ZM83.2729 92.7079L84.2329 91.0452L89.4013 94.0292L88.4413 95.6919L83.2729 92.7079Z" fill="#F5EEE6"/>
<path d="M89.7553 104.099C88.8777 103.593 88.3221 102.976 88.0885 102.25C87.8603 101.515 88.0021 100.704 88.5141 99.817L92.2901 93.2768L94.4518 94.5248L90.6917 101.037C90.5104 101.351 90.4522 101.644 90.5172 101.916C90.5874 102.178 90.7658 102.392 91.0521 102.557C91.3939 102.754 91.7382 102.83 92.0851 102.784L91.787 104.644C91.4747 104.673 91.1375 104.639 90.7754 104.54C90.4279 104.438 90.0878 104.291 89.7553 104.099ZM89.1321 96.0908L90.0921 94.428L95.2605 97.412L94.3005 99.0748L89.1321 96.0908Z" fill="#F5EEE6"/>
<path d="M96.1981 107.819C95.3482 107.328 94.696 106.73 94.2413 106.024C93.7959 105.324 93.5631 104.586 93.5427 103.81C93.5277 103.026 93.7335 102.264 94.1602 101.525C94.5922 100.777 95.1444 100.215 95.8169 99.8394C96.5039 99.4601 97.2409 99.2821 98.0281 99.3054C98.8205 99.3196 99.5955 99.5453 100.353 99.9826C101.083 100.404 101.648 100.94 102.049 101.59C102.464 102.236 102.674 102.949 102.68 103.728C102.691 104.498 102.465 105.285 102.001 106.089C101.953 106.172 101.892 106.266 101.819 106.372C101.751 106.468 101.686 106.559 101.623 106.647L95.5679 103.151L96.2959 101.89L101.215 104.73L100.168 104.624C100.392 104.236 100.508 103.853 100.516 103.476C100.524 103.099 100.435 102.752 100.249 102.435C100.068 102.109 99.7923 101.839 99.4228 101.626C99.0533 101.412 98.6774 101.306 98.295 101.307C97.9272 101.304 97.5795 101.405 97.2518 101.61C96.9294 101.806 96.6535 102.102 96.4242 102.499L96.2322 102.832C95.9975 103.238 95.8773 103.649 95.8715 104.065C95.8802 104.476 95.9983 104.859 96.2256 105.211C96.4675 105.56 96.8101 105.863 97.2535 106.119C97.6507 106.348 98.0318 106.488 98.3967 106.539C98.7709 106.595 99.152 106.575 99.5401 106.478L99.9702 108.39C99.4044 108.58 98.8015 108.632 98.1616 108.546C97.5269 108.451 96.8724 108.208 96.1981 107.819Z" fill="#F5EEE6"/>
<path d="M101.304 110.619L105.608 103.164L107.672 104.356L106.456 106.463L106.517 105.685C107.043 105.286 107.628 105.094 108.272 105.109C108.922 105.115 109.598 105.32 110.3 105.725L109.148 107.721C109.061 107.658 108.98 107.606 108.906 107.563C108.838 107.511 108.762 107.461 108.679 107.413C108.088 107.072 107.509 106.965 106.942 107.094C106.39 107.218 105.908 107.636 105.497 108.348L103.465 111.867L101.304 110.619Z" fill="#F5EEE6"/>
<path d="M109.368 110.785L112.594 104.205L115.171 105.693L111.086 111.777L109.368 110.785ZM108.219 114.759C107.831 114.535 107.584 114.227 107.479 113.833C107.373 113.44 107.419 113.072 107.617 112.73C107.819 112.379 108.112 112.16 108.495 112.073C108.883 111.977 109.271 112.041 109.659 112.265C110.056 112.494 110.305 112.799 110.407 113.177C110.523 113.552 110.48 113.915 110.277 114.266C110.08 114.608 109.784 114.832 109.391 114.937C109.007 115.048 108.616 114.989 108.219 114.759Z" fill="#F5EEE6"/>
</svg>
