<svg width="45" height="46" viewBox="0 0 45 46" fill="none" xmlns="http://www.w3.org/2000/svg">
<path fill-rule="evenodd" clip-rule="evenodd" d="M10 3.67798H35C38.866 3.67798 42 6.81199 42 10.678V35.678C42 39.544 38.866 42.678 35 42.678H10C6.13401 42.678 3 39.544 3 35.678V10.678C3 6.81199 6.13401 3.67798 10 3.67798ZM0 10.678C0 5.15513 4.47715 0.677979 10 0.677979H35C40.5228 0.677979 45 5.15513 45 10.678V35.678C45 41.2008 40.5228 45.678 35 45.678H10C4.47715 45.678 0 41.2008 0 35.678V10.678ZM9.15541 11.0711C9.15541 10.6104 9.71083 9.83338 10.9459 9.83338C12.1811 9.83338 12.7365 10.6104 12.7365 11.0711C12.7365 11.5318 12.1811 12.3088 10.9459 12.3088C9.71083 12.3088 9.15541 11.5318 9.15541 11.0711ZM10.9459 7.33338C8.82258 7.33338 6.65541 8.78398 6.65541 11.0711C6.65541 13.3582 8.82258 14.8088 10.9459 14.8088C13.0693 14.8088 15.2365 13.3582 15.2365 11.0711C15.2365 8.78398 13.0693 7.33338 10.9459 7.33338ZM7.9054 15.8468C7.21505 15.8468 6.6554 16.4064 6.6554 17.0968V37.7725C6.6554 38.4628 7.21505 39.0225 7.9054 39.0225H13.9865C14.6768 39.0225 15.2365 38.4628 15.2365 37.7725V17.0968C15.2365 16.4064 14.6768 15.8468 13.9865 15.8468H7.9054ZM9.1554 36.5225V18.3468H12.7365V36.5225H9.1554ZM25.9885 16.5443C27.4783 15.9483 29.1477 15.8468 30.4054 15.8468C31.8948 15.8468 33.7031 16.2414 35.7664 17.9608C37.5839 19.4754 38.3228 21.3773 38.6424 24.5738C38.6466 24.6151 38.6486 24.6566 38.6486 24.6981V36.7725C38.6486 38.0151 37.6413 39.0225 36.3986 39.0225H32.0135C30.7709 39.0225 29.7635 38.0151 29.7635 36.7725V26.8784C29.7172 26.3657 29.5304 25.5858 29.1424 24.9365C28.7581 24.2936 28.2517 23.8843 27.5445 23.8136C26.4769 23.7068 25.7203 23.8618 25.2409 24.154C24.8282 24.4056 24.4801 24.8425 24.3581 25.6933V36.7725C24.3581 38.0151 23.3507 39.0225 22.1081 39.0225H18.027C16.7844 39.0225 15.777 38.0151 15.777 36.7725V18.0968C15.777 16.8542 16.7844 15.8468 18.027 15.8468H22.1081C23.1268 15.8468 23.9873 16.5238 24.2644 17.4523C24.7715 17.1251 25.354 16.7981 25.9885 16.5443ZM30.4054 18.3468C29.2307 18.3468 27.9521 18.4514 26.9169 18.8655C25.9546 19.2504 25.1097 19.8897 24.4277 20.412L24.4039 20.4302C24.2028 20.5843 23.9869 20.7497 23.8015 20.8733C23.4179 21.129 22.9247 21.1529 22.5183 20.9354C22.1118 20.7178 21.8581 20.2943 21.8581 19.8333V18.3468H18.277V36.5225H21.8581V25.6103C21.8581 25.5585 21.8613 25.5067 21.8678 25.4553C22.0595 23.9212 22.7677 22.7337 23.9398 22.0193C25.0567 21.3385 26.4285 21.1895 27.7933 21.326C29.5185 21.4985 30.6338 22.5588 31.2883 23.654C31.9279 24.724 32.1978 25.9244 32.2598 26.7306C32.2623 26.7625 32.2635 26.7945 32.2635 26.8265V36.5225H36.1486V24.7612C35.8578 21.9217 35.2596 20.7927 34.166 19.8814C32.5807 18.5603 31.3484 18.3468 30.4054 18.3468Z" fill="#DE93C0"/>
</svg>
