<svg width="45" height="46" viewBox="0 0 45 46" fill="none" xmlns="http://www.w3.org/2000/svg">
<path d="M33.9702 45.9326C31.6007 45.9326 29.1053 45.3675 26.5261 44.2791C24.0098 43.2117 21.4725 41.7466 18.9981 39.9675C16.5447 38.1675 14.1752 36.1582 11.9315 33.9605C9.70876 31.721 7.69571 29.3559 5.91333 26.928C4.10997 24.4163 2.66309 21.9047 1.6356 19.4768C0.5452 16.8815 0 14.3698 0 12.0047C0 10.3722 0.293569 8.82331 0.859739 7.37913C1.44688 5.89308 2.39049 4.51169 3.66962 3.31866C5.28425 1.72797 7.12954 0.932617 9.10065 0.932617C9.91845 0.932617 10.7572 1.12099 11.4702 1.45587C12.288 1.83262 12.98 2.39773 13.4832 3.15122L18.3481 9.99541C18.7884 10.6024 19.1239 11.1884 19.3546 11.7745C19.6272 12.4024 19.774 13.0303 19.774 13.6373C19.774 14.4326 19.5433 15.207 19.103 15.9396C18.7884 16.5047 18.3062 17.1117 17.698 17.7187L16.2721 19.2047C16.2931 19.2675 16.3141 19.3094 16.335 19.3512C16.5867 19.7908 17.0899 20.5442 18.0545 21.6745C19.082 22.8466 20.0466 23.914 21.0112 24.8977C22.2484 26.1117 23.2759 27.0745 24.2404 27.8698C25.4357 28.8745 26.2116 29.3768 26.6729 29.607L26.6309 29.7117L28.1617 28.2047C28.8117 27.5559 29.4408 27.0745 30.0489 26.7605C31.2022 26.0489 32.6701 25.9233 34.1379 26.5303C34.6831 26.7605 35.2703 27.0745 35.8993 27.514L42.8611 32.4535C43.637 32.9768 44.2032 33.6466 44.5387 34.4419C44.8532 35.2373 45 35.9698 45 36.7024C45 37.707 44.7693 38.7117 44.329 39.6535C43.8886 40.5954 43.3434 41.4117 42.6514 42.1652C41.4562 43.4838 40.1561 44.4256 38.6463 45.0326C37.1994 45.6187 35.6268 45.9326 33.9702 45.9326ZM9.10065 4.07215C7.94734 4.07215 6.87791 4.57448 5.85042 5.57913C4.88583 6.47913 4.21482 7.46285 3.79543 8.53029C3.35508 9.61866 3.14539 10.7698 3.14539 12.0047C3.14539 13.9512 3.60671 16.0652 4.52936 18.2419C5.47297 20.4605 6.79404 22.7628 8.47157 25.0652C10.1491 27.3675 12.0573 29.607 14.1542 31.721C16.2512 33.7931 18.5158 35.7187 20.8434 37.414C23.1081 39.0675 25.4357 40.407 27.7423 41.3698C31.3281 42.8977 34.6831 43.2535 37.4511 42.1024C38.5205 41.6629 39.4641 40.9931 40.3239 40.0303C40.8061 39.507 41.1836 38.9419 41.4981 38.2721C41.7498 37.7489 41.8756 37.2047 41.8756 36.6605C41.8756 36.3256 41.8127 35.9908 41.6449 35.614C41.582 35.4884 41.4562 35.2582 41.0578 34.9861L34.096 30.0466C33.6766 29.7535 33.2992 29.5442 32.9427 29.3977C32.4814 29.2094 32.2926 29.021 31.5797 29.4605C31.1603 29.6698 30.7829 29.9838 30.3635 30.4024L28.7698 31.9722C27.952 32.7675 26.6939 32.9559 25.7293 32.6001L25.1631 32.3489C24.3034 31.8884 23.2968 31.1768 22.1855 30.2349C21.1789 29.3768 20.0885 28.3722 18.7675 27.0745C17.74 26.028 16.7125 24.9187 15.6431 23.6838C14.6575 22.5326 13.9445 21.5489 13.5042 20.7326L13.2526 20.1047C13.1267 19.6233 13.0848 19.3512 13.0848 19.0582C13.0848 18.3047 13.3574 17.6349 13.8816 17.1117L15.4543 15.4791C15.8737 15.0605 16.1883 14.6628 16.3979 14.307C16.5657 14.0349 16.6286 13.8047 16.6286 13.5954C16.6286 13.428 16.5657 13.1768 16.4609 12.9256C16.3141 12.5908 16.0834 12.214 15.7898 11.8163L10.925 4.95122C10.7153 4.6582 10.4637 4.4489 10.1491 4.30238C9.81361 4.15587 9.45713 4.07215 9.10065 4.07215ZM26.6309 29.7326L26.2954 31.1559L26.8616 29.6908C26.7568 29.6698 26.6729 29.6908 26.6309 29.7326Z" fill="#DE93C0"/>
</svg>
