<svg width="795" height="426" viewBox="0 0 795 426" fill="none" xmlns="http://www.w3.org/2000/svg">
<path d="M0 0H795V426H0V0Z" fill="#5053A4"/>
<path d="M555.663 254.351C554.079 254.351 552.377 254.068 550.709 253.785C549.625 253.601 548.391 253.401 547.19 253.285C546.823 253.252 546.439 253.235 546.072 253.235C544.571 253.235 542.987 253.501 541.469 253.751C539.951 254.001 538.45 254.251 537.099 254.251C534.931 254.251 533.563 253.618 532.512 252.135C530.877 249.82 530.977 246.438 531.044 243.455C531.144 239.44 531.294 235.325 531.478 231.244C532.545 207.253 534.58 187.428 537.866 168.869C538.817 163.537 539.984 157.873 541.669 150.459C542.003 149.077 542.653 147.727 543.304 146.428L543.771 145.478C544.154 144.662 546.156 143.712 550.476 143.712C551.643 143.712 552.861 143.779 554.112 143.929C554.863 144.012 555.646 144.079 556.414 144.145C560.684 144.512 564.387 144.828 565.921 148.144C566.622 149.676 566.989 151.326 567.356 153.075C567.556 154.008 567.773 155.057 568.073 156.074C568.19 156.49 568.456 157.473 568.456 157.473C569.19 160.222 569.941 163.088 571.759 165.637C572.326 166.436 573.143 167.036 574.044 167.336C574.461 167.469 574.878 167.552 575.278 167.552C576.212 167.552 577.046 167.169 577.647 166.47C578.914 164.97 578.631 162.554 578.214 160.205C578.181 160.022 578.114 159.556 578.114 159.556C576.479 148.327 576.463 147.011 581.566 144.545C583.968 143.395 588.822 142.196 592.792 142.196C595.477 142.196 596.595 142.746 597.028 143.062C600.348 145.561 602.266 152.992 603.684 158.423C604.151 160.189 604.568 161.855 605.018 163.221C607.753 171.767 610.289 180.564 612.724 189.061C614.475 195.125 616.26 201.372 618.128 207.47C621.047 217.049 623.082 226.596 624.183 235.825C624.249 236.408 624.333 237.025 624.433 237.691C625.133 242.889 626.218 250.753 621.314 252.852C620.03 253.401 618.412 253.685 616.36 253.685C613.658 253.685 610.689 253.202 608.054 252.768C607.003 252.602 605.985 252.435 605.051 252.302C601.799 251.869 598.53 251.752 595.461 251.669H595.077C594.293 251.669 593.476 251.719 592.592 251.769C591.574 251.835 590.59 251.902 589.639 251.902C585.419 251.902 584.986 250.569 584.886 249.07C584.786 247.487 585.003 245.871 585.236 244.172C585.336 243.489 585.419 242.789 585.503 242.106C585.77 239.54 586.554 237.158 587.354 234.642C587.688 233.626 588.055 232.493 588.372 231.344C590.056 225.413 591.257 220.498 592.075 216.333C592.408 214.6 592.708 212.951 592.992 211.302C593.309 209.486 593.626 207.686 594.009 205.77C594.526 203.155 594.927 200.489 595.21 197.857C595.377 196.208 595.544 192.976 595.711 189.844V189.727C595.861 186.811 596.028 183.813 596.178 182.33C596.278 181.33 595.894 178.731 594.593 177.282C593.943 176.566 593.109 176.182 592.225 176.182C591.624 176.182 591.04 176.366 590.49 176.699C589.723 177.182 589.122 177.915 588.772 178.798C587.805 181.147 587.388 188.111 587.288 190.193C587.087 194.059 586.787 197.99 586.37 201.905L586.287 202.655C585.603 209.119 584.068 215.4 582.834 220.165C582.801 220.298 582.767 220.415 582.734 220.548C582.584 221.231 582.367 221.847 582.084 222.347C581.717 223.03 581.466 223.38 579.732 224.08C578.798 224.463 577.78 224.663 576.846 224.663C576.029 224.663 575.362 224.513 574.828 224.196C573.594 223.48 572.093 221.248 571.008 218.499C569.14 213.734 568.873 212.318 568.356 207.237C567.973 203.488 567.506 199.723 566.972 196.024C566.822 195.008 566.655 193.992 566.488 192.976C566.355 192.143 566.221 191.326 566.088 190.493C566.055 190.293 566.038 190.11 566.021 189.927C565.888 188.844 565.721 187.361 564.453 186.078C563.169 184.762 562.001 184.146 560.784 184.146C559.566 184.146 558.565 184.746 557.865 185.845C556.998 187.211 556.38 189.227 556.347 190.86C556.18 198.823 557.898 206.287 559.549 213.517C560.183 216.266 560.834 219.099 561.368 221.914C562.552 228.145 563.503 234.342 564.353 240.09C564.637 241.973 564.954 244.455 564.937 246.971C564.937 248.753 564.353 251.869 562.268 252.252C561.668 252.369 561.134 252.585 560.65 252.918C559.249 253.885 557.681 254.334 555.713 254.334L555.663 254.351Z" fill="#DFCC22"/>
<path d="M208.762 255.367C207.828 255.367 206.861 255.201 205.827 255.034C205.176 254.917 204.509 254.818 203.859 254.734C202.524 254.584 201.157 254.334 199.822 254.085C198.421 253.835 196.987 253.568 195.519 253.401C195.052 253.351 194.602 253.285 194.135 253.235C192.283 253.002 190.465 252.768 188.63 252.768C188.397 252.768 188.163 252.768 187.93 252.768C186.779 252.802 185.611 252.885 184.444 252.968C183.877 253.002 183.293 253.052 182.726 253.085C181.775 253.135 180.908 253.168 180.124 253.168C177.638 253.168 175.604 252.902 173.735 252.302C172.184 251.819 171.1 250.319 171.033 248.57C170.95 245.871 171.417 243.089 172.484 240.09L173.969 235.908C177.422 226.146 181.008 216.05 184.894 206.27C188.914 196.191 192.7 185.562 196.136 174.7C197.687 169.818 199.439 164.037 200.673 158.123C201.49 154.191 202.508 150.093 205.043 146.761C206.427 144.945 208.295 143.862 210.914 143.362C214.25 142.729 224.525 142.229 226.993 142.229H227.293C230.679 142.329 234.182 142.762 237.568 143.196L239.119 143.395C240.921 143.612 242.272 144.029 243.389 144.712C245.791 146.161 246.191 148.66 246.558 152.625C246.808 155.357 246.708 158.323 246.241 161.422C245.991 163.104 245.891 164.804 245.791 166.436C245.708 167.886 245.624 169.352 245.441 170.751C245.107 173.35 244.94 175.966 244.774 178.498C244.59 181.397 244.407 184.362 243.956 187.178C243.606 189.46 243.056 191.793 241.488 193.542C239.953 195.241 238.502 195.641 236.017 195.874C231.847 196.241 223.924 197.324 219.571 197.924C217.219 198.257 215.518 200.289 215.618 202.655C215.935 210.002 216.435 219.365 216.902 222.314C217.519 226.179 218.153 229.544 218.954 233.243C219.504 235.808 219.637 237.874 219.804 240.273C219.871 241.39 219.954 242.539 220.071 243.805C220.171 244.772 219.921 245.904 219.704 247.004C219.404 248.403 217.402 252.019 216.919 252.602C215.284 253.935 213.9 254.967 212.232 255.201C211.648 255.284 211.014 255.301 210.364 255.317C210.03 255.317 209.696 255.334 209.363 255.351C209.129 255.367 208.946 255.367 208.762 255.367ZM223.324 156.307C221.956 156.307 220.855 156.79 220.054 157.723C218.17 159.955 218.02 163.804 217.886 167.203C217.836 168.635 217.786 169.968 217.603 170.901C217.536 171.268 217.386 171.817 217.219 172.45C216.202 176.232 214.684 181.93 218.553 184.079C220.455 185.145 221.873 185.595 223.29 185.595C224.174 185.595 225.042 185.412 225.942 185.045C227.527 184.396 228.444 183.213 228.845 181.33C229.295 179.198 229.629 176.632 229.945 174.133C230.296 171.451 230.646 168.685 231.146 166.553C231.48 165.103 231.73 163.871 231.897 162.571C232.147 160.622 231.814 159.089 230.913 158.006C230.396 157.373 229.412 156.607 227.744 156.507C227.427 156.49 227.093 156.474 226.76 156.474H225.242C225.058 156.474 224.875 156.474 224.675 156.44C224.241 156.39 223.791 156.324 223.324 156.324V156.307Z" fill="#DFCC22"/>
<path d="M496.734 255.301C489.529 255.301 483.524 253.401 479.338 249.82C475.151 246.238 473.483 238.824 472.816 233.226C471.248 220.031 471.098 205.571 472.382 191.443C472.766 187.195 472.849 183.063 472.916 179.065C472.983 174.983 473.05 171.151 473.433 167.436C473.7 164.92 474.584 160.072 475.435 157.906C476.852 154.274 479.104 152.142 482.29 151.342C484.959 150.693 487.444 150.359 489.879 150.359C491.047 150.359 492.214 150.443 493.365 150.593C495.217 150.842 496.801 151.042 498.202 152.059C499.036 152.658 499.386 153.291 499.37 154.141C499.153 166.17 496.067 180.597 493.582 192.193L493.098 194.475C490.229 207.936 489.245 218.149 489.696 229.694C489.846 233.409 492.248 236.542 495.534 237.308C496.034 237.424 496.518 237.474 497.001 237.474C501.188 237.474 503.723 233.343 504.707 229.494C505.741 225.396 505.825 221.231 505.892 217.199C506.242 196.091 506.442 178.881 506.509 163.038C506.509 161.688 506.442 160.322 506.375 159.122V158.956C506.342 158.373 506.309 157.79 506.292 157.223C506.242 155.807 506.659 154.608 507.626 153.341C509.194 151.309 511.146 150.293 514.131 149.959C514.615 149.91 515.182 149.826 515.799 149.743C517.884 149.46 520.703 149.077 523.405 149.077C530.927 149.077 532.045 151.942 532.229 154.091C532.362 155.724 532.295 157.057 531.995 158.289C530.744 163.504 529.86 168.885 529.009 174.083L528.509 177.165C528.292 178.448 528.042 179.731 527.792 180.997C527.291 183.496 526.791 185.995 526.557 188.577C525.74 198.024 524.923 207.453 524.139 216.899C523.972 218.865 523.839 220.831 523.689 222.814C523.238 229.344 522.888 236.158 521.404 242.556C519.252 251.819 511.196 253.735 502.789 254.884C500.738 255.167 498.686 255.301 496.718 255.301H496.734Z" fill="#DFCC22"/>
<path d="M365.7 253.401C363.782 253.401 362.181 253.102 360.813 252.485C354.258 249.52 351.122 239.357 348.854 231.927L348.303 230.161C347.519 227.678 346.869 225.096 346.235 222.597C345.801 220.898 345.368 219.198 344.901 217.516C344.384 215.667 343.633 213.867 342.899 212.118C341.998 209.985 341.148 207.97 340.781 205.987C340.564 204.838 340.881 203.738 341.598 203.105C342.449 202.355 343.233 201.955 343.967 201.889C345.168 201.789 346.385 201.639 347.469 201.506C349.254 201.272 350.922 201.072 352.573 201.072C354.091 201.072 355.409 201.256 356.593 201.655L356.76 201.705C359.112 202.472 361.13 203.122 362.031 204.704C363.682 207.636 364.332 212.185 364.783 215.517C365.033 217.366 364.866 219.215 364.683 221.181C364.516 222.964 364.349 224.796 364.499 226.712C364.933 232.41 368.135 235.392 371.071 235.392C372.339 235.392 375.408 234.826 376.775 229.644C377.809 225.729 377.309 221.797 376.825 217.982C376.825 217.982 376.675 216.833 376.625 216.333C374.84 201.056 360.463 196.258 348.921 192.376C347.953 192.043 347.086 191.759 346.235 191.476C345.484 191.226 344.751 190.96 344.017 190.66C339.697 188.927 333.942 184.945 330.006 181.797C327.237 179.581 326.086 177.099 324.485 173.667C324.251 173.167 324.018 172.65 323.768 172.134C322.233 168.919 321.616 165.27 321.933 161.322C322.183 158.306 322.467 155.624 323.484 153.275C324.668 150.526 326.186 147.527 329.089 146.494C331.357 145.695 333.392 145.211 335.327 145.011C340.08 144.545 344.984 144.328 350.305 144.328C352.106 144.328 353.974 144.362 355.826 144.412C356.41 144.412 356.977 144.412 357.544 144.412C358.611 144.412 359.662 144.412 360.73 144.378C361.78 144.378 362.815 144.345 363.865 144.345C365.784 144.345 367.351 144.395 368.769 144.512C374.757 144.978 378.293 150.326 379.878 153.475C381.095 155.89 382.063 158.723 382.78 161.855C382.88 162.271 382.997 162.738 383.13 163.254C383.631 165.22 384.665 169.285 383.747 170.568C383.114 171.451 380.995 171.967 379.744 172.267L379.577 172.317C377.076 172.934 374.624 173.25 372.472 173.25C370.12 173.25 368.135 172.867 366.567 172.134C364.549 171.184 362.881 169.052 361.28 166.986C360.98 166.619 360.713 166.253 360.429 165.903C360.329 165.786 359.996 165.253 359.762 164.87C357.661 161.522 356.126 159.322 354.024 159.322C353.257 159.322 351.422 159.656 351.055 162.671C350.822 164.604 351.639 166.453 352.24 167.786L352.323 167.969C353.858 171.418 356.393 173.4 358.661 174.883C361.847 176.965 365.216 178.498 368.452 179.964C372.289 181.713 375.941 183.18 378.76 186.395C381.362 189.377 383.731 192.343 385.465 195.974C387.35 199.956 389.068 205.237 389.218 209.402C389.285 211.218 389.552 215.8 389.552 215.8C390.069 224.663 389.702 234.659 388.034 241.156C387.2 244.405 385.032 246.754 383.43 248.37C380.945 250.869 377.459 251.669 373.456 252.385L372.889 252.485C370.52 252.918 368.052 253.368 365.7 253.368V253.401Z" fill="#DFCC22"/>
<path d="M409.584 253.085C406.281 253.085 403.096 252.768 400.093 252.119C398.275 251.735 396.541 251.269 395.273 249.886C393.171 247.587 393.088 242.956 393.455 240.09C394.022 235.642 394.372 231.16 394.522 226.662C394.706 221.031 394.556 215.4 394.072 209.802C393.605 204.421 392.271 199.19 391.837 193.842C391.754 192.709 392.154 191.793 392.988 191.176C394.439 190.11 396.007 189.594 397.741 189.594C398.776 189.594 399.893 189.777 401.144 190.127C402.712 190.577 404.163 190.91 405.598 191.16C406.798 191.376 407.966 191.909 409.267 192.559C411.085 193.459 412.553 194.941 413.387 196.757C414.771 199.79 414.788 203.055 414.671 206.137C414.588 208.553 413.904 210.835 413.203 213.267C412.82 214.567 412.453 215.866 412.153 217.199L412.103 217.399C411.485 220.181 410.852 223.03 410.885 226.079C410.885 227.295 411.152 228.461 411.652 229.628C412.636 231.943 414.438 232.193 415.172 232.193C417.957 232.193 420.259 229.111 420.926 227.612C422.277 224.63 423.144 221.031 423.511 216.933C423.812 213.584 423.795 210.419 423.411 206.387C422.978 201.572 421.526 196.874 419.258 192.842C417.623 189.943 415.639 188.844 413.537 187.661C411.202 186.345 408.783 185.262 406.448 184.196C405.114 183.596 403.863 183.03 402.629 182.43C397.858 180.114 394.422 177.182 392.137 173.45C390.553 170.851 389.035 168.385 388.301 165.503C386.933 160.005 386.633 153.341 390.553 148.443C393.305 145.045 397.475 144.995 402.112 144.795C402.112 144.795 408.35 144.412 410.485 144.412C418.741 144.412 425.196 145.328 430.8 147.327C432.001 147.744 433.119 148.46 434.153 149.443C435.137 150.376 435.654 151.892 436.071 153.225C436.872 155.824 436.855 158.506 436.838 161.338V161.522C436.838 162.071 436.838 162.638 436.838 163.204C436.838 165.053 437.205 166.853 437.539 168.602C437.906 170.451 438.239 172.167 438.156 173.783C438.123 174.666 437.772 175.299 436.988 175.916C435.404 177.165 433.953 177.682 431.985 177.682C431.067 177.682 429.983 177.565 428.499 177.315C425.58 176.832 422.294 174.183 420.859 171.168C419.475 168.236 418.774 166.753 418.774 163.188C418.774 162.888 418.774 162.604 418.774 162.338C418.824 160.555 418.924 157.257 414.855 156.474C414.621 156.424 414.421 156.407 414.221 156.407C412.136 156.407 411.352 158.256 411.068 158.956C410.501 160.305 410.601 161.555 410.685 162.554C410.685 162.754 410.718 162.954 410.718 163.154C410.735 163.587 410.752 164.021 410.768 164.437C410.835 166.853 410.918 169.585 412.336 172.151C414.388 175.866 416.473 177.932 420.276 180.047C421.66 180.814 423.144 181.547 424.596 182.263C426.297 183.113 428.031 183.963 429.533 184.829C431.584 186.028 433.502 187.644 435.07 189.527C436.888 191.693 437.289 193.725 437.739 196.791C438.84 204.288 438.823 211.352 437.706 217.782C437.422 219.465 437.155 221.231 436.888 223.097C435.904 229.894 434.803 237.541 431.734 242.489C426.247 251.302 420.492 252.402 413.537 252.918C412.186 253.018 410.852 253.068 409.534 253.068L409.584 253.085Z" fill="#DFCC22"/>
<path d="M279.067 255.9C276.965 255.651 275.064 254.934 273.796 253.451C271.794 251.086 271.211 247.487 270.66 244.022C270.577 243.505 270.493 242.989 270.41 242.506C269.676 238.191 269.276 233.509 269.209 228.178C269.142 222.847 270.277 213.934 271.261 206.054C271.811 201.755 272.328 197.707 272.578 194.708C272.778 192.442 273.079 190.01 273.412 187.444V187.345C274.079 182.313 274.747 177.099 274.613 172.384V172.017C274.547 169.818 274.48 166.47 271.127 164.904C270.894 164.787 270.51 164.62 270.026 164.57H269.876L269.726 164.554C267.858 164.554 266.674 166.153 266.474 167.652C265.99 171.351 266.307 175.099 266.624 178.731C267.057 183.729 267.458 188.444 265.84 192.776C265.373 194.025 264.756 195.425 263.772 196.408C263.071 197.091 262.287 197.391 261.22 197.391C259.568 197.391 257.633 196.657 255.749 195.958L254.965 195.658C252.546 194.758 250.345 194.125 249.978 191.226C249.194 185.195 250.978 182.213 251.779 176.615V176.449C252.329 172.667 252.796 169.402 252.913 167.986C253.03 166.636 253.113 165.17 253.18 163.771C253.313 161.255 253.43 158.689 253.831 156.474C254.014 155.424 254.114 154.408 254.214 153.425C254.381 151.742 254.531 150.209 255.048 148.793C255.282 148.16 256.716 146.144 257.083 145.695C259.418 143.729 262.504 143.695 266.057 143.679H267.308C268.108 143.662 268.909 143.645 269.709 143.645C274.18 143.645 278.766 143.829 283.737 144.195C284.337 144.245 284.955 144.262 285.605 144.262C285.955 144.262 286.322 144.262 286.689 144.245C287.49 144.212 288.424 144.212 289.425 144.212C292.41 144.212 296.113 144.312 299.366 144.395C301.501 144.445 303.419 144.512 304.92 144.528C308.273 144.578 311.225 146.028 313.71 148.843C314.694 149.959 315.345 151.476 315.611 153.341C315.928 155.457 315.678 157.357 315.411 159.389C315.161 161.222 314.911 163.121 315.044 165.32C315.161 167.436 316.412 171.767 317.496 174C318.18 175.416 318.53 177.249 318.163 178.798C317.88 179.997 316.646 180.814 315.695 181.48C314.561 182.28 313.26 182.98 311.925 183.346C310.774 183.663 309.59 183.929 308.423 184.229C307.255 184.529 306.338 184.779 305.187 185.095C303.636 185.512 302.051 185.828 300.45 186.028C299.716 186.128 297.564 186.212 296.78 184.862C294.912 181.647 295.162 177.432 296.313 173.883C296.563 173.084 296.897 172.284 297.247 171.451C297.581 170.635 297.914 169.802 298.215 168.935C298.382 168.419 298.782 167.219 298.348 165.97C297.965 164.87 297.097 164.037 295.746 163.487C295.062 163.204 294.428 163.071 293.811 163.071C293.344 163.071 292.894 163.154 292.494 163.304C290.475 164.087 290.008 166.303 289.858 167.036C288.407 174 288.607 180.814 289.008 186.562C289.091 187.644 289.141 188.727 289.208 189.81C289.408 193.159 289.608 196.541 290.108 199.89C290.375 201.622 290.676 203.355 290.976 205.087C291.443 207.786 291.927 210.585 292.243 213.367C292.494 215.567 292.744 217.766 293.011 219.981C293.695 225.713 294.328 231.46 294.779 237.225C295.096 241.273 295.413 245.338 295.463 249.403C295.463 250.386 295.463 251.402 294.962 252.252C293.761 254.334 290.092 254.818 287.957 255.284C285.055 255.917 282.052 256.284 279.083 255.917L279.067 255.9Z" fill="#DFCC22"/>
<path d="M309.04 256.5C306.671 256.5 305.037 255.85 304.036 254.501C303.119 253.285 302.852 251.502 302.718 250.086C302.635 249.253 302.518 248.403 302.401 247.554C302.168 245.954 301.934 244.288 302.034 242.822C301.934 233.743 301.184 224.763 300.416 216.35C300.283 214.9 300.083 213.351 299.849 211.718V211.568C299.015 205.604 298.098 198.84 300.433 194.458C301.034 193.325 302.184 192.343 303.819 191.51C307.872 189.477 312.359 188.294 317.947 187.761C318.364 187.728 318.781 187.694 319.181 187.694C325.119 187.694 329.489 192.126 332.541 201.222L333.125 202.955C334.559 207.237 335.694 210.585 336.678 215.1C337.111 217.083 337.729 219.032 338.296 220.764C338.713 222.081 339.146 223.447 339.497 224.78C340.431 228.378 341.915 232.077 343.333 235.659C345.134 240.173 346.969 244.805 347.72 249.136C348.02 250.819 347.953 251.985 347.536 252.835C347.119 253.551 342.949 254.884 336.428 254.884C334.526 254.884 333.142 254.751 332.608 254.601C330.74 254.101 329.556 253.268 329.022 252.052C328.555 251.002 328.371 249.103 328.205 247.271C328.004 245.188 327.804 243.039 327.137 241.39C326.803 240.59 326.553 239.69 326.27 238.757C325.869 237.408 325.486 236.075 324.869 234.792C324.402 233.826 323.351 232.676 320.982 232.676C320.382 232.676 319.815 232.743 319.398 232.81C317.396 233.06 316.245 234.426 316.312 236.458C316.412 239.224 317.279 241.856 318.13 244.405C319.164 247.487 320.132 250.403 319.598 253.168C319.498 253.685 319.381 253.868 319.348 253.901C319.198 254.084 318.647 254.284 318.38 254.368C315.662 255.334 312.159 256.467 309.056 256.467L309.04 256.5ZM317.296 202.155C316.862 202.155 316.429 202.239 316.012 202.405C314.361 203.072 313.643 204.504 313.843 206.67C314.177 210.185 314.461 213.401 314.494 217.133V217.682C314.477 218.899 314.444 220.565 314.677 222.247C315.011 224.73 316.546 226.212 318.781 226.212C319.098 226.212 319.448 226.179 319.798 226.112C321.349 225.829 322.65 225.046 323.418 223.897C324.118 222.864 324.368 221.614 324.118 220.348C323.784 218.665 323.451 216.983 323.117 215.283C322.7 213.168 322.283 211.052 321.85 208.936L321.733 208.336C321.499 207.17 321.266 205.987 320.732 204.771C319.715 202.472 318.147 202.139 317.296 202.139V202.155Z" fill="#DFCC22"/>
<path d="M451.283 254.668C450.682 254.668 450.065 254.668 449.431 254.618H449.331C448.531 254.618 447.813 254.634 447.13 254.634C445.278 254.634 443.293 254.568 441.375 254.118C439.04 253.568 437.839 251.969 438.173 249.836C438.54 247.47 439.707 243.639 440.841 239.923C441.909 236.442 442.91 233.176 443.327 230.877C444.394 225.213 444.894 219.415 445.378 213.801V213.667C445.578 211.385 445.779 209.102 446.012 206.82C446.946 197.757 446.813 189.594 445.595 181.847L445.562 181.647C445.328 180.214 445.128 178.865 445.428 177.765C445.945 175.932 449.248 175.466 452.167 175.049C453.451 174.866 454.652 174.7 455.686 174.416L456.07 174.3C457.471 173.917 458.789 173.533 460.073 173.45C460.256 173.45 460.44 173.433 460.623 173.433C463.392 173.433 465.127 175.166 465.344 178.182C465.577 181.214 465.11 184.396 464.66 187.461C464.476 188.677 464.309 189.86 464.176 191.043C463.592 196.074 463.292 201.206 463.275 206.27C463.242 212.901 463.709 219.582 464.626 226.146C465.444 231.977 465.444 237.908 465.16 243.789C465.06 245.938 465.51 249.503 464.309 251.369C463.359 252.835 461.207 253.351 459.606 253.685C456.27 254.401 453.918 254.684 451.266 254.684L451.283 254.668Z" fill="#DFCC22"/>
<path d="M256.85 257C255.865 256.983 254.948 256.967 254.097 256.783C250.978 256.1 247.809 255.85 244.757 255.617H244.507C243.789 255.534 243.072 255.484 242.355 255.417C238.869 255.117 236.601 254.568 233.198 253.735L232.964 253.685C227.66 252.402 226.459 247.587 226.293 240.74C226.226 237.808 225.759 234.959 225.325 232.193C225.108 230.86 224.875 229.361 224.691 227.928C224.208 223.963 223.907 219.798 223.841 215.883C223.724 209.552 225.309 205.637 228.678 203.905C232.364 202.005 236.884 201.855 241.237 201.705H241.588C242.021 201.672 242.472 201.672 242.922 201.672C245.591 201.672 248.093 201.922 250.378 202.438C255.782 203.638 259.235 206.104 260.652 209.719C261.853 212.818 261.953 216.516 262.054 220.098V220.248C262.087 221.364 262.12 222.447 262.187 223.513L262.337 226.262C262.737 233.409 263.121 240.157 264.889 247.104C265.289 248.687 265.323 250.419 265.006 252.252C264.689 254.035 263.822 255.251 262.354 255.984C261.203 256.55 259.068 257.033 257.667 257.033H256.866L256.85 257ZM244.457 211.168C243.773 211.168 242.172 211.168 241.087 212.468C240.504 213.168 240.337 213.967 240.253 214.567C239.836 217.616 240.387 220.498 240.904 223.28C241.288 225.296 241.638 227.162 241.638 229.028C241.638 230.96 241.438 232.96 241.237 234.892C240.887 238.258 240.537 241.723 241.121 245.288C241.204 245.804 241.404 247.037 242.455 247.87C242.955 248.254 243.456 248.42 243.923 248.553C245.257 248.903 246.625 249.17 248.009 249.353C248.26 249.386 248.51 249.403 248.76 249.403C249.594 249.403 250.328 249.17 250.895 248.687C252.53 247.354 252.079 245.005 251.796 243.439V243.322C251.746 243.122 251.712 242.956 251.696 242.822C251.545 241.223 251.445 239.457 251.412 237.441C251.345 234.609 251.412 231.727 251.479 228.911C251.495 227.928 251.562 224.18 251.562 224.18C251.595 222.414 251.629 220.631 251.629 218.865C251.629 218.599 251.629 218.332 251.646 218.082C251.712 216.216 251.846 213.118 248.51 211.735C247.109 211.152 245.691 211.152 244.54 211.135H244.44L244.457 211.168Z" fill="#DFCC22"/>
<path d="M455.703 166.836L454.152 163.771C453.785 163.038 452.801 162.871 452.217 163.437L446.646 168.735C445.695 169.635 444.194 168.635 444.661 167.419L447.446 160.072C447.713 159.356 447.28 158.573 446.512 158.439L442.176 157.656C441.108 157.456 440.791 156.09 441.675 155.457L444.094 153.725C444.828 153.192 444.761 152.092 443.96 151.659L437.455 148.144C436.304 147.527 436.788 145.778 438.089 145.844L445.345 146.194C446.279 146.244 446.913 145.261 446.496 144.428L444.928 141.246C444.427 140.213 445.478 139.13 446.529 139.58L451.133 141.596C451.85 141.913 452.684 141.48 452.834 140.697L454.235 133.033C454.468 131.75 456.287 131.667 456.62 132.933L458.672 140.43C458.889 141.196 459.756 141.563 460.456 141.18L464.076 139.164C465.027 138.631 466.127 139.497 465.861 140.547L465.01 143.812C464.793 144.662 465.494 145.445 466.361 145.328L473.817 144.328C475.101 144.162 475.735 145.844 474.651 146.561L468.196 150.792C467.512 151.242 467.445 152.209 468.062 152.742L470.948 155.241C471.748 155.94 471.348 157.257 470.281 157.39L466.795 157.79C465.961 157.89 465.46 158.773 465.827 159.539L469.113 166.403C469.68 167.586 468.262 168.702 467.245 167.886L461.207 163.054C460.573 162.554 459.622 162.788 459.306 163.537L457.904 166.803C457.487 167.769 456.153 167.802 455.686 166.869L455.703 166.836Z" fill="#C77EB5"/>
<path d="M207.847 290V267.6H217.735C219.271 267.6 220.573 267.824 221.639 268.272C222.706 268.699 223.506 269.328 224.039 270.16C224.594 270.971 224.871 271.952 224.871 273.104C224.871 274.384 224.551 275.461 223.911 276.336C223.293 277.211 222.386 277.797 221.191 278.096L221.127 277.488C222.13 277.701 222.994 278.075 223.719 278.608C224.466 279.141 225.042 279.803 225.447 280.592C225.853 281.36 226.055 282.235 226.055 283.216C226.055 284.347 225.863 285.339 225.479 286.192C225.095 287.024 224.541 287.728 223.815 288.304C223.09 288.88 222.237 289.307 221.255 289.584C220.295 289.861 219.229 290 218.055 290H207.847ZM212.967 285.456H217.863C218.461 285.456 218.962 285.36 219.367 285.168C219.794 284.976 220.125 284.699 220.359 284.336C220.594 283.952 220.711 283.493 220.711 282.96C220.711 282.469 220.583 282.053 220.327 281.712C220.093 281.371 219.751 281.115 219.303 280.944C218.855 280.752 218.322 280.656 217.703 280.656H212.967V285.456ZM212.967 276.592H216.967C217.522 276.592 217.991 276.507 218.375 276.336C218.781 276.144 219.079 275.888 219.271 275.568C219.485 275.227 219.591 274.821 219.591 274.352C219.591 273.669 219.357 273.136 218.887 272.752C218.418 272.347 217.714 272.144 216.775 272.144H212.967V276.592Z" fill="#C77EB5"/>
<path d="M230.285 290V267.6H240.365C241.794 267.6 243.085 267.909 244.237 268.528C245.41 269.147 246.327 270 246.989 271.088C247.65 272.155 247.981 273.371 247.981 274.736C247.981 276.144 247.65 277.413 246.989 278.544C246.327 279.653 245.421 280.528 244.269 281.168C243.117 281.808 241.815 282.128 240.365 282.128H235.469V290H230.285ZM242.701 290L237.005 279.888L242.573 279.088L248.909 290H242.701ZM235.469 277.968H239.885C240.439 277.968 240.919 277.851 241.325 277.616C241.751 277.36 242.071 277.008 242.285 276.56C242.519 276.112 242.637 275.6 242.637 275.024C242.637 274.448 242.509 273.947 242.253 273.52C241.997 273.072 241.623 272.731 241.133 272.496C240.663 272.261 240.087 272.144 239.405 272.144H235.469V277.968Z" fill="#C77EB5"/>
<path d="M249.906 290L258.77 267.6H263.378L272.177 290H266.673L262.449 278.64C262.279 278.192 262.108 277.712 261.938 277.2C261.767 276.688 261.596 276.165 261.426 275.632C261.255 275.077 261.084 274.544 260.914 274.032C260.764 273.499 260.636 273.008 260.53 272.56L261.49 272.528C261.362 273.061 261.212 273.584 261.042 274.096C260.892 274.608 260.732 275.12 260.561 275.632C260.412 276.123 260.241 276.624 260.049 277.136C259.857 277.627 259.676 278.139 259.505 278.672L255.281 290H249.906ZM254.13 285.712L255.826 281.616H266.13L267.793 285.712H254.13Z" fill="#C77EB5"/>
<path d="M274.972 290V267.6H279.836L291.58 283.6L290.524 283.44C290.418 282.736 290.332 282.064 290.268 281.424C290.204 280.784 290.14 280.155 290.076 279.536C290.034 278.917 289.991 278.288 289.948 277.648C289.927 277.008 289.906 276.315 289.884 275.568C289.884 274.821 289.884 274.011 289.884 273.136V267.6H295.164V290H290.236L277.98 273.488L279.612 273.712C279.719 274.736 279.804 275.611 279.868 276.336C279.954 277.04 280.018 277.669 280.06 278.224C280.124 278.779 280.167 279.28 280.188 279.728C280.21 280.176 280.22 280.624 280.22 281.072C280.242 281.499 280.252 281.979 280.252 282.512V290H274.972Z" fill="#C77EB5"/>
<path d="M300.785 290V267.6H310.161C311.803 267.6 313.307 267.877 314.673 268.432C316.038 268.965 317.211 269.733 318.193 270.736C319.195 271.739 319.963 272.923 320.497 274.288C321.03 275.653 321.297 277.157 321.297 278.8C321.297 280.443 321.03 281.957 320.497 283.344C319.963 284.709 319.195 285.893 318.193 286.896C317.211 287.877 316.038 288.645 314.673 289.2C313.307 289.733 311.803 290 310.161 290H300.785ZM306.225 286.288L305.489 285.2H310.001C310.897 285.2 311.697 285.051 312.401 284.752C313.105 284.432 313.702 283.995 314.193 283.44C314.705 282.885 315.099 282.213 315.377 281.424C315.654 280.635 315.793 279.76 315.793 278.8C315.793 277.84 315.654 276.965 315.377 276.176C315.099 275.387 314.705 274.715 314.193 274.16C313.702 273.605 313.105 273.179 312.401 272.88C311.697 272.56 310.897 272.4 310.001 272.4H305.393L306.225 271.376V286.288Z" fill="#C77EB5"/>
<path d="M335.754 290V267.6H345.418C346.826 267.6 348.073 267.92 349.161 268.56C350.271 269.2 351.145 270.075 351.785 271.184C352.447 272.293 352.777 273.541 352.777 274.928C352.777 276.379 352.447 277.68 351.785 278.832C351.145 279.963 350.271 280.859 349.161 281.52C348.073 282.181 346.826 282.512 345.418 282.512H341.194V290H335.754ZM341.098 277.744H344.65C345.119 277.744 345.546 277.627 345.93 277.392C346.314 277.157 346.623 276.837 346.858 276.432C347.092 276.027 347.21 275.557 347.21 275.024C347.21 274.469 347.092 274 346.858 273.616C346.623 273.232 346.314 272.933 345.93 272.72C345.546 272.507 345.119 272.4 344.65 272.4H341.098V277.744Z" fill="#C77EB5"/>
<path d="M356.941 290V267.6H367.021C368.45 267.6 369.741 267.909 370.893 268.528C372.066 269.147 372.984 270 373.645 271.088C374.306 272.155 374.637 273.371 374.637 274.736C374.637 276.144 374.306 277.413 373.645 278.544C372.984 279.653 372.077 280.528 370.925 281.168C369.773 281.808 368.472 282.128 367.021 282.128H362.125V290H356.941ZM369.357 290L363.661 279.888L369.229 279.088L375.565 290H369.357ZM362.125 277.968H366.541C367.096 277.968 367.576 277.851 367.981 277.616C368.408 277.36 368.728 277.008 368.941 276.56C369.176 276.112 369.293 275.6 369.293 275.024C369.293 274.448 369.165 273.947 368.909 273.52C368.653 273.072 368.28 272.731 367.789 272.496C367.32 272.261 366.744 272.144 366.061 272.144H362.125V277.968Z" fill="#C77EB5"/>
<path d="M379.41 290V267.6H395.026V272.24H384.69V285.36H395.346V290H379.41ZM381.97 280.816V276.4H393.586V280.816H381.97Z" fill="#C77EB5"/>
<path d="M407.459 290.32C405.987 290.32 404.653 290.149 403.459 289.808C402.285 289.445 401.24 288.933 400.323 288.272C399.405 287.589 398.584 286.789 397.859 285.872L401.155 282.128C402.221 283.557 403.288 284.517 404.355 285.008C405.443 285.499 406.563 285.744 407.715 285.744C408.291 285.744 408.813 285.669 409.283 285.52C409.752 285.371 410.115 285.157 410.371 284.88C410.627 284.581 410.755 284.219 410.755 283.792C410.755 283.472 410.669 283.184 410.499 282.928C410.349 282.672 410.136 282.448 409.859 282.256C409.581 282.064 409.251 281.893 408.867 281.744C408.483 281.573 408.077 281.435 407.651 281.328C407.224 281.2 406.787 281.093 406.339 281.008C405.101 280.731 404.024 280.389 403.107 279.984C402.189 279.579 401.421 279.088 400.803 278.512C400.205 277.915 399.757 277.243 399.459 276.496C399.16 275.728 399.011 274.875 399.011 273.936C399.011 272.933 399.235 272.016 399.683 271.184C400.152 270.331 400.771 269.605 401.539 269.008C402.328 268.389 403.235 267.92 404.259 267.6C405.283 267.259 406.349 267.088 407.459 267.088C408.931 267.088 410.189 267.248 411.235 267.568C412.301 267.867 413.208 268.304 413.955 268.88C414.723 269.456 415.373 270.149 415.907 270.96L412.547 274.192C412.099 273.637 411.608 273.179 411.075 272.816C410.563 272.453 410.008 272.176 409.411 271.984C408.835 271.792 408.237 271.696 407.619 271.696C406.979 271.696 406.424 271.781 405.955 271.952C405.507 272.101 405.155 272.325 404.899 272.624C404.643 272.901 404.515 273.243 404.515 273.648C404.515 274.011 404.621 274.32 404.835 274.576C405.048 274.832 405.336 275.067 405.699 275.28C406.061 275.472 406.477 275.643 406.947 275.792C407.416 275.92 407.907 276.027 408.419 276.112C409.592 276.347 410.648 276.656 411.587 277.04C412.547 277.424 413.368 277.893 414.051 278.448C414.755 279.003 415.288 279.664 415.651 280.432C416.035 281.179 416.227 282.053 416.227 283.056C416.227 284.613 415.843 285.936 415.075 287.024C414.328 288.091 413.293 288.912 411.971 289.488C410.669 290.043 409.165 290.32 407.459 290.32Z" fill="#C77EB5"/>
<path d="M420.316 290V267.6H435.932V272.24H425.596V285.36H436.252V290H420.316ZM422.876 280.816V276.4H434.492V280.816H422.876Z" fill="#C77EB5"/>
<path d="M440.941 290V267.6H445.805L457.549 283.6L456.493 283.44C456.386 282.736 456.301 282.064 456.237 281.424C456.173 280.784 456.109 280.155 456.045 279.536C456.002 278.917 455.96 278.288 455.917 277.648C455.896 277.008 455.874 276.315 455.853 275.568C455.853 274.821 455.853 274.011 455.853 273.136V267.6H461.133V290H456.205L443.949 273.488L445.581 273.712C445.688 274.736 445.773 275.611 445.837 276.336C445.922 277.04 445.986 277.669 446.029 278.224C446.093 278.779 446.136 279.28 446.157 279.728C446.178 280.176 446.189 280.624 446.189 281.072C446.21 281.499 446.221 281.979 446.221 282.512V290H440.941Z" fill="#C77EB5"/>
<path d="M471.617 290V272.4H464.961V267.6H483.874V272.4H477.057V290H471.617Z" fill="#C77EB5"/>
<path d="M483.28 290L492.145 267.6H496.753L505.552 290H500.048L495.824 278.64C495.654 278.192 495.483 277.712 495.312 277.2C495.142 276.688 494.971 276.165 494.801 275.632C494.63 275.077 494.459 274.544 494.289 274.032C494.139 273.499 494.011 273.008 493.905 272.56L494.865 272.528C494.737 273.061 494.587 273.584 494.417 274.096C494.267 274.608 494.107 275.12 493.936 275.632C493.787 276.123 493.616 276.624 493.424 277.136C493.232 277.627 493.051 278.139 492.88 278.672L488.656 290H483.28ZM487.504 285.712L489.201 281.616H499.505L501.168 285.712H487.504Z" fill="#C77EB5"/>
<path d="M511.617 290V272.4H504.961V267.6H523.873V272.4H517.057V290H511.617Z" fill="#C77EB5"/>
<path d="M527.274 290V285.424H531.05V272.176H527.274V267.6H540.298V272.176H536.49V285.424H540.298V290H527.274Z" fill="#C77EB5"/>
<path d="M555.211 290.32C553.505 290.32 551.947 290.032 550.539 289.456C549.131 288.88 547.905 288.069 546.859 287.024C545.814 285.979 545.003 284.752 544.427 283.344C543.851 281.936 543.563 280.389 543.563 278.704C543.563 277.019 543.851 275.472 544.427 274.064C545.003 272.656 545.814 271.429 546.859 270.384C547.905 269.339 549.131 268.528 550.539 267.952C551.947 267.376 553.494 267.088 555.18 267.088C556.865 267.088 558.412 267.376 559.82 267.952C561.228 268.528 562.454 269.339 563.5 270.384C564.545 271.429 565.345 272.656 565.899 274.064C566.475 275.472 566.763 277.019 566.763 278.704C566.763 280.368 566.475 281.915 565.899 283.344C565.345 284.752 564.545 285.979 563.5 287.024C562.454 288.069 561.228 288.88 559.82 289.456C558.412 290.032 556.875 290.32 555.211 290.32ZM555.18 285.2C556.054 285.2 556.854 285.04 557.58 284.72C558.326 284.4 558.966 283.952 559.5 283.376C560.054 282.779 560.481 282.085 560.779 281.296C561.078 280.507 561.227 279.643 561.227 278.704C561.227 277.765 561.078 276.901 560.779 276.112C560.481 275.323 560.054 274.64 559.5 274.064C558.966 273.467 558.326 273.008 557.58 272.688C556.854 272.368 556.054 272.208 555.18 272.208C554.305 272.208 553.494 272.368 552.747 272.688C552.022 273.008 551.382 273.467 550.828 274.064C550.273 274.64 549.846 275.323 549.547 276.112C549.27 276.901 549.131 277.765 549.131 278.704C549.131 279.643 549.27 280.517 549.547 281.328C549.846 282.117 550.273 282.8 550.828 283.376C551.382 283.952 552.022 284.4 552.747 284.72C553.494 285.04 554.305 285.2 555.18 285.2Z" fill="#C77EB5"/>
<path d="M570.972 290V267.6H575.836L587.58 283.6L586.524 283.44C586.418 282.736 586.332 282.064 586.268 281.424C586.204 280.784 586.14 280.155 586.076 279.536C586.034 278.917 585.991 278.288 585.948 277.648C585.927 277.008 585.906 276.315 585.884 275.568C585.884 274.821 585.884 274.011 585.884 273.136V267.6H591.164V290H586.236L573.98 273.488L575.612 273.712C575.719 274.736 575.804 275.611 575.868 276.336C575.954 277.04 576.018 277.669 576.06 278.224C576.124 278.779 576.167 279.28 576.188 279.728C576.21 280.176 576.22 280.624 576.22 281.072C576.242 281.499 576.252 281.979 576.252 282.512V290H570.972Z" fill="#C77EB5"/>
</svg>
